<svg xmlns="http://www.w3.org/2000/svg" xmlns:xlink="http://www.w3.org/1999/xlink" width="1979" zoomAndPan="magnify" viewBox="0 0 1484.25 765.749977" height="1021" preserveAspectRatio="xMidYMid meet" version="1.0"><defs><g/><clipPath id="5209886105"><path d="M 51 135 L 824.582031 135 L 824.582031 601 L 51 601 Z M 51 135 " clip-rule="nonzero"/></clipPath><clipPath id="b0cad5b1dc"><path d="M 0 4 L 680 4 L 680 742.195312 L 0 742.195312 Z M 0 4 " clip-rule="nonzero"/></clipPath></defs><g clip-path="url(#5209886105)"><path fill="#ffffff" d="M 368.21875 323.175781 C 344.183594 351.160156 324.09375 375.539062 303.148438 398.203125 C 298.171875 403.695312 288.898438 407.128906 282.375 405.757812 C 238.425781 397.171875 204.601562 356.140625 198.078125 305.320312 C 190.355469 244.71875 208.207031 188.578125 249.414062 165.570312 C 276.882812 150.292969 308.472656 138.273438 338.34375 137.757812 C 497.667969 135.011719 656.988281 136.214844 816.484375 136.214844 C 818.371094 136.214844 820.261719 137.414062 824.550781 144.109375 C 810.988281 152.007812 798.285156 163.167969 784.035156 167.117188 C 722.230469 184.285156 660.59375 202.140625 598.101562 214.5 C 511.402344 231.667969 424.015625 244.03125 336.972656 258.453125 C 322.207031 260.855469 310.1875 266.519531 310.1875 288.839844 C 310.1875 310.644531 321.863281 317.683594 336.457031 320.257812 C 345.210938 321.976562 354.3125 321.976562 368.21875 323.175781 Z M 53.351562 599.070312 C 56.957031 599.585938 60.390625 600.273438 63.996094 600.273438 C 222.457031 600.273438 380.921875 601.132812 539.386719 599.242188 C 569.085938 598.898438 599.992188 592.71875 627.976562 580.875 C 682.570312 557.695312 707.292969 491.769531 694.757812 416.574219 C 686.003906 364.210938 637.589844 322.488281 586.253906 323.519531 C 582.308594 323.519531 577.15625 325.238281 574.753906 328.5 C 553.464844 356.65625 532.519531 385.324219 512.433594 412.28125 C 524.105469 413.140625 539.730469 413.824219 555.179688 415.199219 C 570.976562 416.574219 583.335938 423.097656 583.679688 446.445312 C 584.195312 469.792969 572.175781 476.488281 556.382812 479.410156 C 493.71875 490.566406 430.882812 500.867188 368.390625 513.402344 C 277.570312 531.773438 186.921875 551.515625 96.441406 571.773438 C 80.992188 575.207031 66.226562 584.652344 51.289062 591.347656 C 51.976562 593.921875 52.664062 596.496094 53.351562 599.070312 Z M 53.351562 599.070312 " fill-opacity="1" fill-rule="nonzero"/></g><g clip-path="url(#b0cad5b1dc)"><path fill="#c1ff72" d="M 0.300781 104.453125 C 52.492188 90.375 104.339844 73.71875 157.046875 62.5625 C 254.046875 41.960938 351.050781 21.015625 448.910156 7.277344 C 500.585938 0.0703125 553.636719 7.277344 606 9.339844 C 617.160156 9.855469 628.488281 15.519531 639.132812 20.671875 C 675.875 38.527344 687.550781 70.972656 675.015625 119.386719 C 595.011719 118.703125 514.835938 119.386719 434.660156 104.453125 C 380.921875 94.324219 325.46875 95.695312 270.875 96.554688 C 180.910156 98.101562 90.949219 103.421875 1.160156 107.027344 C 0.644531 106.167969 0.472656 105.308594 0.300781 104.453125 Z M 248.726562 515.804688 C 290.445312 507.738281 332.164062 498.636719 374.054688 492.285156 C 398.949219 488.507812 420.238281 479.921875 438.78125 457.261719 C 488.222656 396.828125 539.214844 338.457031 589.175781 278.539062 C 600.164062 265.320312 609.261719 249.695312 623.511719 228.921875 C 585.398438 235.960938 553.636719 244.546875 521.875 246.949219 C 473.804688 250.382812 434.488281 270.125 400.664062 314.078125 C 350.019531 379.832031 296.109375 441.808594 243.574219 505.503906 C 245.292969 508.765625 247.007812 512.371094 248.726562 515.804688 Z M 153.441406 742.425781 C 192.929688 704.140625 232.417969 665.855469 271.902344 627.742188 C 245.636719 622.25 221.429688 621.734375 197.222656 622.59375 C 193.101562 622.765625 187.089844 627.054688 185.546875 631.519531 C 172.328125 666.371094 159.964844 701.738281 147.261719 736.761719 C 149.148438 738.652344 151.210938 740.539062 153.441406 742.425781 Z M 153.441406 742.425781 " fill-opacity="1" fill-rule="nonzero"/></g><g fill="#ffffff" fill-opacity="1"><g transform="translate(688.285017, 597.403123)"><g><path d="M 63.75 -122.953125 C 72.414062 -122.953125 80.535156 -121.332031 88.109375 -118.09375 C 95.679688 -114.851562 102.347656 -110.347656 108.109375 -104.578125 C 113.878906 -98.816406 118.40625 -92.148438 121.6875 -84.578125 C 124.96875 -77.003906 126.609375 -68.882812 126.609375 -60.21875 C 126.609375 -51.71875 124.96875 -43.703125 121.6875 -36.171875 C 118.40625 -28.640625 113.878906 -22.007812 108.109375 -16.28125 C 102.347656 -10.5625 95.679688 -6.0625 88.109375 -2.78125 C 80.535156 0.5 72.414062 2.140625 63.75 2.140625 C 55.25 2.140625 47.234375 0.5 39.703125 -2.78125 C 32.171875 -6.0625 25.539062 -10.5625 19.8125 -16.28125 C 14.09375 -22.007812 9.613281 -28.640625 6.375 -36.171875 C 3.132812 -43.703125 1.515625 -51.71875 1.515625 -60.21875 C 1.515625 -68.882812 3.132812 -77.003906 6.375 -84.578125 C 9.613281 -92.148438 14.09375 -98.816406 19.8125 -104.578125 C 25.539062 -110.347656 32.171875 -114.851562 39.703125 -118.09375 C 47.234375 -121.332031 55.25 -122.953125 63.75 -122.953125 Z M 63.75 -20.578125 C 69.21875 -20.578125 74.367188 -21.609375 79.203125 -23.671875 C 84.046875 -25.734375 88.316406 -28.59375 92.015625 -32.25 C 95.722656 -35.914062 98.628906 -40.144531 100.734375 -44.9375 C 102.835938 -49.738281 103.890625 -54.832031 103.890625 -60.21875 C 103.890625 -65.769531 102.835938 -70.960938 100.734375 -75.796875 C 98.628906 -80.640625 95.722656 -84.890625 92.015625 -88.546875 C 88.316406 -92.210938 84.046875 -95.078125 79.203125 -97.140625 C 74.367188 -99.203125 69.21875 -100.234375 63.75 -100.234375 C 58.363281 -100.234375 53.269531 -99.203125 48.46875 -97.140625 C 43.675781 -95.078125 39.46875 -92.210938 35.84375 -88.546875 C 32.226562 -84.890625 29.390625 -80.640625 27.328125 -75.796875 C 25.265625 -70.960938 24.234375 -65.769531 24.234375 -60.21875 C 24.234375 -54.832031 25.265625 -49.738281 27.328125 -44.9375 C 29.390625 -40.144531 32.226562 -35.914062 35.84375 -32.25 C 39.46875 -28.59375 43.675781 -25.734375 48.46875 -23.671875 C 53.269531 -21.609375 58.363281 -20.578125 63.75 -20.578125 Z M 63.75 -97.078125 C 68.882812 -97.078125 73.679688 -96.109375 78.140625 -94.171875 C 82.597656 -92.234375 86.53125 -89.582031 89.9375 -86.21875 C 93.351562 -82.851562 96.003906 -78.9375 97.890625 -74.46875 C 99.785156 -70.007812 100.734375 -65.257812 100.734375 -60.21875 C 100.734375 -55.082031 99.785156 -50.304688 97.890625 -45.890625 C 96.003906 -41.472656 93.351562 -37.578125 89.9375 -34.203125 C 86.53125 -30.835938 82.597656 -28.207031 78.140625 -26.3125 C 73.679688 -24.425781 68.882812 -23.484375 63.75 -23.484375 C 58.695312 -23.484375 53.960938 -24.425781 49.546875 -26.3125 C 45.128906 -28.207031 41.210938 -30.835938 37.796875 -34.203125 C 34.390625 -37.578125 31.738281 -41.472656 29.84375 -45.890625 C 27.957031 -50.304688 27.015625 -55.082031 27.015625 -60.21875 C 27.015625 -65.257812 27.957031 -70.007812 29.84375 -74.46875 C 31.738281 -78.9375 34.390625 -82.851562 37.796875 -86.21875 C 41.210938 -89.582031 45.128906 -92.234375 49.546875 -94.171875 C 53.960938 -96.109375 58.695312 -97.078125 63.75 -97.078125 Z M 63.75 -46.078125 C 66.351562 -46.078125 68.75 -46.726562 70.9375 -48.03125 C 73.132812 -49.332031 74.882812 -51.078125 76.1875 -53.265625 C 77.488281 -55.453125 78.140625 -57.769531 78.140625 -60.21875 C 78.140625 -62.820312 77.488281 -65.195312 76.1875 -67.34375 C 74.882812 -69.488281 73.132812 -71.191406 70.9375 -72.453125 C 68.75 -73.722656 66.351562 -74.359375 63.75 -74.359375 C 61.3125 -74.359375 59.019531 -73.722656 56.875 -72.453125 C 54.726562 -71.191406 53 -69.488281 51.6875 -67.34375 C 50.382812 -65.195312 49.734375 -62.820312 49.734375 -60.21875 C 49.734375 -57.769531 50.382812 -55.453125 51.6875 -53.265625 C 53 -51.078125 54.726562 -49.332031 56.875 -48.03125 C 59.019531 -46.726562 61.3125 -46.078125 63.75 -46.078125 Z M 63.75 -46.078125 "/></g></g><g transform="translate(819.948158, 597.403123)"><g><path d="M 63.5 -20.453125 C 72.332031 -20.453125 80.050781 -22.910156 86.65625 -27.828125 C 93.269531 -32.753906 97.835938 -39.675781 100.359375 -48.59375 C 101.953125 -42.875 104.851562 -37.71875 109.0625 -33.125 C 113.269531 -28.539062 118.28125 -25.15625 124.09375 -22.96875 L 124.09375 0.25 C 115.425781 -1.851562 107.515625 -5.679688 100.359375 -11.234375 C 95.140625 -6.941406 89.351562 -3.742188 83 -1.640625 C 76.644531 0.460938 70.144531 1.515625 63.5 1.515625 C 55.082031 1.515625 47.191406 -0.0625 39.828125 -3.21875 C 32.460938 -6.375 26.003906 -10.75 20.453125 -16.34375 C 14.898438 -21.945312 10.566406 -28.425781 7.453125 -35.78125 C 4.335938 -43.144531 2.78125 -50.992188 2.78125 -59.328125 L 2.78125 -121.1875 L 25 -121.1875 L 25 -58.828125 C 25 -53.609375 25.984375 -48.679688 27.953125 -44.046875 C 29.929688 -39.421875 32.6875 -35.363281 36.21875 -31.875 C 39.757812 -28.382812 43.863281 -25.628906 48.53125 -23.609375 C 53.207031 -21.585938 58.195312 -20.535156 63.5 -20.453125 Z M 63.5 -45.1875 C 60.96875 -45.1875 58.628906 -45.835938 56.484375 -47.140625 C 54.335938 -48.453125 52.632812 -50.160156 51.375 -52.265625 C 50.113281 -54.367188 49.484375 -56.640625 49.484375 -59.078125 L 49.484375 -121.1875 L 27.890625 -121.1875 L 27.890625 -59.078125 C 27.890625 -54.191406 28.816406 -49.582031 30.671875 -45.25 C 32.523438 -40.914062 35.070312 -37.085938 38.3125 -33.765625 C 41.550781 -30.441406 45.335938 -27.851562 49.671875 -26 C 54.003906 -24.15625 58.613281 -23.234375 63.5 -23.234375 C 68.375 -23.234375 72.957031 -24.15625 77.25 -26 C 81.539062 -27.851562 85.304688 -30.441406 88.546875 -33.765625 C 91.796875 -37.085938 94.34375 -40.914062 96.1875 -45.25 C 98.039062 -49.582031 98.96875 -54.191406 98.96875 -59.078125 L 98.96875 -121.1875 L 77.25 -121.1875 L 77.25 -59.078125 C 77.25 -56.554688 76.617188 -54.242188 75.359375 -52.140625 C 74.097656 -50.035156 72.4375 -48.347656 70.375 -47.078125 C 68.3125 -45.816406 66.019531 -45.1875 63.5 -45.1875 Z M 124.09375 -121.1875 L 101.875 -121.1875 L 101.875 -59.078125 C 101.875 -54.191406 102.796875 -49.5625 104.640625 -45.1875 C 106.492188 -40.8125 109.082031 -36.921875 112.40625 -33.515625 C 115.738281 -30.109375 119.632812 -27.476562 124.09375 -25.625 Z M 124.09375 -121.1875 "/></g></g><g transform="translate(951.35883, 597.403123)"><g><path d="M 38.75 0 L 18.9375 -19.9375 C 13.550781 -25.414062 9.488281 -31.726562 6.75 -38.875 C 4.019531 -46.03125 2.65625 -53.519531 2.65625 -61.34375 L 2.65625 -121.9375 L 24.875 -121.9375 L 24.875 -61.09375 C 24.875 -55.707031 25.898438 -50.703125 27.953125 -46.078125 C 30.015625 -41.453125 32.734375 -37.367188 36.109375 -33.828125 L 63.5 -6.0625 L 91.015625 -33.828125 C 94.460938 -37.367188 97.21875 -41.453125 99.28125 -46.078125 C 101.34375 -50.703125 102.375 -55.707031 102.375 -61.09375 L 102.375 -121.9375 L 124.59375 -121.9375 L 124.59375 -61.34375 C 124.59375 -53.519531 123.222656 -46.03125 120.484375 -38.875 C 117.753906 -31.726562 113.65625 -25.414062 108.1875 -19.9375 L 88.625 0 Z M 27.765625 -121.9375 L 49.859375 -121.9375 L 49.859375 -61.34375 C 49.859375 -58.488281 50.613281 -55.878906 52.125 -53.515625 C 53.644531 -51.160156 55.457031 -48.992188 57.5625 -47.015625 C 59.664062 -45.046875 61.644531 -43.175781 63.5 -41.40625 C 65.351562 -43.175781 67.375 -45.046875 69.5625 -47.015625 C 71.75 -48.992188 73.640625 -51.160156 75.234375 -53.515625 C 76.835938 -55.878906 77.640625 -58.488281 77.640625 -61.34375 L 77.640625 -121.9375 L 99.46875 -121.9375 L 99.46875 -61.34375 C 99.46875 -56.46875 98.519531 -51.796875 96.625 -47.328125 C 94.738281 -42.867188 92.15625 -38.957031 88.875 -35.59375 L 63.5 -10.21875 L 38.25 -35.59375 C 34.96875 -38.957031 32.398438 -42.867188 30.546875 -47.328125 C 28.691406 -51.796875 27.765625 -56.46875 27.765625 -61.34375 Z M 27.765625 -121.9375 "/></g></g><g transform="translate(1083.274443, 597.403123)"><g><path d="M 1.765625 -152.875 C 1.765625 -157.832031 2.941406 -162.3125 5.296875 -166.3125 C 7.660156 -170.3125 10.859375 -173.507812 14.890625 -175.90625 C 18.929688 -178.300781 23.394531 -179.5 28.28125 -179.5 C 33.238281 -179.5 37.71875 -178.300781 41.71875 -175.90625 C 45.71875 -173.507812 48.914062 -170.3125 51.3125 -166.3125 C 53.707031 -162.3125 54.90625 -157.832031 54.90625 -152.875 C 54.90625 -147.988281 53.707031 -143.523438 51.3125 -139.484375 C 48.914062 -135.453125 45.71875 -132.253906 41.71875 -129.890625 C 37.71875 -127.535156 33.238281 -126.359375 28.28125 -126.359375 C 23.394531 -126.359375 18.929688 -127.535156 14.890625 -129.890625 C 10.859375 -132.253906 7.660156 -135.453125 5.296875 -139.484375 C 2.941406 -143.523438 1.765625 -147.988281 1.765625 -152.875 Z M 25.125 -152.875 C 25.125 -152.195312 25.414062 -151.5625 26 -150.96875 C 26.59375 -150.382812 27.222656 -150.09375 27.890625 -150.09375 C 28.566406 -150.09375 29.15625 -150.382812 29.65625 -150.96875 C 30.164062 -151.5625 30.421875 -152.195312 30.421875 -152.875 C 30.421875 -153.539062 30.164062 -154.125 29.65625 -154.625 C 29.15625 -155.132812 28.566406 -155.390625 27.890625 -155.390625 C 27.222656 -155.390625 26.59375 -155.132812 26 -154.625 C 25.414062 -154.125 25.125 -153.539062 25.125 -152.875 Z M 4.296875 -121.5625 L 26.765625 -121.5625 L 26.765625 0 L 4.296875 0 Z M 51.625 0 L 29.15625 0 L 29.15625 -121.5625 L 51.625 -121.5625 Z M 51.625 0 "/></g></g></g><g fill="#ffffff" fill-opacity="1"><g transform="translate(1144.119755, 597.403123)"><g><path d="M 48.21875 -84.953125 C 52.007812 -87.648438 55.671875 -90.640625 59.203125 -93.921875 C 62.734375 -97.203125 65.632812 -100.503906 67.90625 -103.828125 C 70.1875 -107.148438 71.328125 -110.203125 71.328125 -112.984375 L 71.328125 -120.9375 L 93.421875 -120.9375 L 93.421875 -112.859375 C 93.421875 -108.140625 92.597656 -103.445312 90.953125 -98.78125 C 89.304688 -94.113281 86.59375 -90.304688 82.8125 -87.359375 L 48.21875 -61.21875 L 27.015625 -61.21875 L 27.015625 -126.109375 C 27.015625 -131.660156 25.941406 -136.8125 23.796875 -141.5625 C 21.648438 -146.320312 18.703125 -150.488281 14.953125 -154.0625 C 11.210938 -157.644531 6.898438 -160.363281 2.015625 -162.21875 L 2.015625 -185.5625 C 8.835938 -183.96875 15.066406 -181.296875 20.703125 -177.546875 C 26.335938 -173.804688 31.21875 -169.285156 35.34375 -163.984375 C 39.46875 -158.679688 42.644531 -152.832031 44.875 -146.4375 C 47.101562 -140.039062 48.21875 -133.347656 48.21875 -126.359375 Z M 2.015625 -159.1875 C 6.390625 -157.414062 10.238281 -154.847656 13.5625 -151.484375 C 16.894531 -148.117188 19.503906 -144.269531 21.390625 -139.9375 C 23.285156 -135.601562 24.234375 -131.078125 24.234375 -126.359375 L 24.234375 0 L 2.015625 0 Z M 87.234375 -60.21875 L 102.375 -47.96875 C 107.257812 -44.09375 110.835938 -40.132812 113.109375 -36.09375 C 115.378906 -32.0625 116.847656 -27.664062 117.515625 -22.90625 C 118.191406 -18.15625 118.53125 -12.75 118.53125 -6.6875 L 118.53125 0 L 96.1875 0 L 96.1875 -7.0625 C 96.1875 -12.28125 95.28125 -17.394531 93.46875 -22.40625 C 91.664062 -27.414062 88.785156 -31.4375 84.828125 -34.46875 L 50.375 -60.21875 L 84.828125 -85.59375 C 88.359375 -89.039062 91.132812 -93.117188 93.15625 -97.828125 C 95.175781 -102.546875 96.1875 -107.554688 96.1875 -112.859375 L 96.1875 -120.9375 L 118.53125 -120.9375 L 118.53125 -113.109375 C 118.53125 -107.722656 118.109375 -102.523438 117.265625 -97.515625 C 116.429688 -92.503906 114.851562 -87.832031 112.53125 -83.5 C 110.21875 -79.164062 106.832031 -75.273438 102.375 -71.828125 Z M 48.21875 0 L 27.015625 0 L 27.015625 -58.578125 L 48.21875 -58.578125 L 82.8125 -32.5625 C 86.59375 -29.539062 89.304688 -25.710938 90.953125 -21.078125 C 92.597656 -16.453125 93.421875 -11.738281 93.421875 -6.9375 L 93.421875 0 L 71.328125 0 L 71.328125 -6.9375 C 71.328125 -9.039062 70.503906 -11.332031 68.859375 -13.8125 C 67.222656 -16.300781 65.160156 -18.785156 62.671875 -21.265625 C 60.191406 -23.753906 57.644531 -26.050781 55.03125 -28.15625 C 52.425781 -30.257812 50.15625 -31.984375 48.21875 -33.328125 Z M 48.21875 0 "/></g></g></g><g fill="#c1ff72" fill-opacity="1"><g transform="translate(259.896885, 718.198126)"><g><path d="M 87.753906 -52.371094 C 87.753906 -63.867188 77.957031 -71.660156 66.863281 -71.660156 L 24.386719 -71.660156 C 13.292969 -71.660156 3.398438 -63.964844 3.398438 -52.371094 L 3.398438 -19.488281 C 3.398438 -8.394531 13.792969 -0.101562 24.386719 -0.101562 L 86.554688 -0.101562 L 86.554688 -12.894531 L 24.386719 -12.894531 C 20.789062 -12.894531 16.992188 -15.890625 16.992188 -19.488281 L 16.992188 -52.371094 C 16.992188 -56.671875 19.488281 -58.867188 24.386719 -58.867188 L 66.863281 -58.867188 C 71.761719 -58.867188 74.261719 -56.671875 74.261719 -52.371094 L 74.261719 -48.875 C 74.261719 -45.375 70.363281 -42.476562 66.863281 -42.476562 L 24.386719 -42.476562 L 24.386719 -29.585938 L 66.863281 -29.585938 C 77.558594 -29.585938 87.753906 -38.28125 87.753906 -48.875 Z M 87.753906 -52.371094 "/></g></g></g><g fill="#c1ff72" fill-opacity="1"><g transform="translate(356.644262, 718.198126)"><g><path d="M 88.953125 -13.09375 L 25.886719 -13.09375 C 20.988281 -13.09375 18.488281 -15.191406 18.488281 -19.488281 L 18.488281 -52.472656 C 18.488281 -55.96875 22.289062 -58.96875 25.886719 -58.96875 L 88.953125 -58.96875 L 88.953125 -71.761719 L 25.886719 -71.761719 C 15.292969 -71.761719 4.898438 -62.867188 4.898438 -52.472656 L 4.898438 -19.488281 C 4.898438 -8.097656 14.492188 -0.101562 25.886719 -0.101562 L 88.953125 -0.101562 Z M 88.953125 -13.09375 "/></g></g></g><g fill="#c1ff72" fill-opacity="1"><g transform="translate(452.692027, 718.198126)"><g><path d="M 86.453125 -71.761719 L 73.0625 -71.761719 L 73.0625 -42.476562 L 20.6875 -42.476562 L 20.6875 -29.285156 L 73.0625 -29.285156 L 73.0625 -0.101562 L 86.453125 -0.101562 Z M 16.492188 -71.761719 L 3 -71.761719 L 3 -0.101562 L 16.492188 -0.101562 Z M 16.492188 -71.761719 "/></g></g></g><g fill="#c1ff72" fill-opacity="1"><g transform="translate(547.646007, 718.198126)"><g/></g></g><g fill="#c1ff72" fill-opacity="1"><g transform="translate(589.023504, 718.198126)"><g/></g></g><g fill="#c1ff72" fill-opacity="1"><g transform="translate(630.401001, 718.198126)"><g/></g></g><g fill="#c1ff72" fill-opacity="1"><g transform="translate(671.778589, 718.198126)"><g><path d="M 75.261719 -52.371094 C 71.960938 -65.265625 64.964844 -71.660156 54.269531 -71.660156 L 36.082031 -71.660156 C 25.386719 -71.660156 18.488281 -65.265625 15.191406 -52.371094 L 1.699219 0 L 16.089844 0 L 29.585938 -52.371094 C 30.683594 -56.671875 33.183594 -58.867188 36.980469 -58.867188 L 53.472656 -58.867188 C 57.070312 -58.867188 59.46875 -56.671875 60.667969 -52.371094 L 63.367188 -42.476562 L 32.382812 -42.476562 L 29.285156 -29.285156 L 66.863281 -29.285156 L 74.359375 0 L 88.753906 0 Z M 75.261719 -52.371094 "/></g></g></g><g fill="#c1ff72" fill-opacity="1"><g transform="translate(766.027325, 718.198126)"><g><path d="M 89.152344 -22.886719 C 89.152344 -33.582031 78.957031 -42.277344 68.265625 -42.277344 L 25.886719 -42.277344 L 25.886719 -29.382812 L 68.265625 -29.382812 C 71.863281 -29.382812 75.761719 -26.484375 75.761719 -22.886719 L 75.761719 -19.488281 C 75.761719 -15.191406 73.261719 -13.09375 68.265625 -13.09375 L 25.886719 -13.09375 C 20.988281 -13.09375 18.488281 -15.191406 18.488281 -19.488281 L 18.488281 -52.472656 C 18.488281 -55.96875 22.289062 -58.96875 25.886719 -58.96875 L 88.054688 -58.96875 L 88.054688 -71.761719 L 25.886719 -71.761719 C 15.292969 -71.761719 4.898438 -63.167969 4.898438 -52.472656 L 4.898438 -19.488281 C 4.898438 -8.097656 14.292969 -0.101562 25.886719 -0.101562 L 68.265625 -0.101562 C 79.757812 -0.101562 89.152344 -8.097656 89.152344 -19.488281 Z M 89.152344 -22.886719 "/></g></g></g><g fill="#c1ff72" fill-opacity="1"><g transform="translate(862.774702, 718.198126)"><g><path d="M 87.753906 -52.371094 C 87.753906 -63.867188 77.957031 -71.660156 66.863281 -71.660156 L 24.386719 -71.660156 C 13.292969 -71.660156 3.398438 -63.964844 3.398438 -52.371094 L 3.398438 -19.488281 C 3.398438 -8.394531 13.792969 -0.101562 24.386719 -0.101562 L 86.554688 -0.101562 L 86.554688 -12.894531 L 24.386719 -12.894531 C 20.789062 -12.894531 16.992188 -15.890625 16.992188 -19.488281 L 16.992188 -52.371094 C 16.992188 -56.671875 19.488281 -58.867188 24.386719 -58.867188 L 66.863281 -58.867188 C 71.761719 -58.867188 74.261719 -56.671875 74.261719 -52.371094 L 74.261719 -48.875 C 74.261719 -45.375 70.363281 -42.476562 66.863281 -42.476562 L 24.386719 -42.476562 L 24.386719 -29.585938 L 66.863281 -29.585938 C 77.558594 -29.585938 87.753906 -38.28125 87.753906 -48.875 Z M 87.753906 -52.371094 "/></g></g></g><g fill="#c1ff72" fill-opacity="1"><g transform="translate(959.522079, 718.198126)"><g><path d="M 91.953125 -71.761719 L 78.457031 -71.761719 L 78.457031 -19.488281 C 78.457031 -15.191406 75.960938 -13.09375 71.0625 -13.09375 L 61.765625 -13.09375 C 56.769531 -13.09375 54.269531 -15.191406 54.269531 -19.488281 L 54.472656 -52.472656 C 54.570312 -63.867188 44.675781 -71.761719 33.480469 -71.761719 L 24.085938 -71.761719 C 12.792969 -71.761719 3.199219 -63.964844 3.199219 -52.472656 L 3.199219 -0.101562 L 16.792969 -0.101562 L 16.792969 -52.472656 C 16.792969 -56.769531 19.191406 -58.96875 24.085938 -58.96875 L 33.480469 -58.96875 C 38.378906 -58.96875 40.878906 -56.769531 40.878906 -52.472656 L 40.878906 -19.488281 C 40.878906 -8.59375 49.875 -0.101562 61.765625 -0.101562 L 71.0625 -0.101562 C 82.355469 -0.101562 91.953125 -8.195312 91.953125 -19.488281 Z M 91.953125 -71.761719 "/></g></g></g><g fill="#c1ff72" fill-opacity="1"><g transform="translate(1059.767578, 718.198126)"><g><path d="M 88.953125 -13.09375 L 25.886719 -13.09375 C 20.988281 -13.09375 18.488281 -15.191406 18.488281 -19.488281 L 18.488281 -52.472656 C 18.488281 -55.96875 22.289062 -58.96875 25.886719 -58.96875 L 88.953125 -58.96875 L 88.953125 -71.761719 L 25.886719 -71.761719 C 15.292969 -71.761719 4.898438 -62.867188 4.898438 -52.472656 L 4.898438 -19.488281 C 4.898438 -8.097656 14.492188 -0.101562 25.886719 -0.101562 L 88.953125 -0.101562 Z M 88.953125 -13.09375 "/></g></g></g><g fill="#c1ff72" fill-opacity="1"><g transform="translate(1155.815308, 718.198126)"><g><path d="M 91.953125 -71.761719 L 78.457031 -71.761719 L 78.457031 -42.578125 L 25.886719 -42.578125 C 20.988281 -42.578125 18.488281 -44.777344 18.488281 -49.175781 L 18.488281 -71.761719 L 4.898438 -71.761719 L 4.898438 -49.175781 C 4.898438 -37.480469 14.292969 -29.785156 25.886719 -29.785156 L 78.457031 -29.785156 L 78.457031 -19.488281 C 78.457031 -15.191406 75.960938 -13.09375 71.0625 -13.09375 L 8.59375 -13.09375 L 8.59375 -0.101562 L 71.0625 -0.101562 C 82.355469 -0.101562 91.953125 -8.195312 91.953125 -19.488281 Z M 91.953125 -71.761719 "/></g></g></g></svg>